<svg width="160" height="20" viewBox="0 0 160 20" fill="none" xmlns="http://www.w3.org/2000/svg">
<g clip-path="url(#clip0_8_459)">
<mask id="mask0_8_459" style="mask-type:luminance" maskUnits="userSpaceOnUse" x="0" y="3" width="21" height="13">
<path d="M20.001 3.2251H0.000976562V15.7179H20.001V3.2251Z" fill="white"/>
</mask>
<g mask="url(#mask0_8_459)">
<path fill-rule="evenodd" clip-rule="evenodd" d="M19.9617 15.0708C19.9617 15.4387 19.6613 15.7392 19.2935 15.7392H0.645808C0.277928 15.7392 -0.0224609 15.4387 -0.0224609 15.0708V3.91454C-0.0224609 3.54659 0.277928 3.24609 0.645808 3.24609H19.2935C19.6614 3.24609 19.9618 3.54659 19.9618 3.91454L19.9617 15.0708Z" fill="#14477C"/>
<path fill-rule="evenodd" clip-rule="evenodd" d="M12.3666 13.0765L12.5505 13.0729L12.7347 13.0616L12.9148 13.0352L13.0912 13.0052L13.2639 12.9639L13.4366 12.919L13.6018 12.8587L13.767 12.7951L13.9245 12.7235L14.0784 12.6447L14.2287 12.5582L14.3752 12.4645L14.5179 12.3632L14.653 12.258L14.7806 12.1454L14.908 12.025L15.0246 11.9011L15.1374 11.7697L15.2461 11.6345L15.3475 11.4957L15.4376 11.3492L15.5278 11.1991L15.6028 11.0451L15.6779 10.8837L15.7418 10.7221L15.7982 10.5533L15.847 10.3841L15.8881 10.2115L15.9183 10.0311L15.9409 9.85475L15.9557 9.67056L15.9593 9.48684L15.9557 9.3026L15.9409 9.11859L15.9183 8.94209L15.8881 8.76586L15.847 8.59287L15.7982 8.42409L15.7418 8.25494L15.6779 8.09358L15.6028 7.93575L15.5278 7.78184L15.4376 7.63168L15.3475 7.48522L15.2461 7.34638L15.1374 7.21117L15.0246 7.07978L14.908 6.95585L14.7806 6.83938L14.653 6.72674L14.5179 6.61796L14.3752 6.52019L14.2287 6.42624L14.0784 6.34004L13.9245 6.261L13.767 6.18967L13.6018 6.12604L13.4366 6.06961L13.2639 6.02085L13.0912 5.97954L12.9148 5.94952L12.7347 5.92694L12.5505 5.91182L12.3666 5.9082L12.1826 5.91182L12.0026 5.92694L11.8222 5.94952L11.6459 5.97954L11.473 6.02085L11.3004 6.06961L11.135 6.12604L10.9737 6.18967L10.816 6.261L10.662 6.34004L10.512 6.42624L10.3655 6.52019L10.2267 6.61796L10.0912 6.72674L9.95992 6.83938L9.83625 6.95585L9.71591 7.07978L9.6072 7.21117L9.49814 7.34638L9.40061 7.48522L9.30674 7.63168L9.22055 7.78184L9.14153 7.93575L9.07024 8.09358L9.00634 8.25494L8.95018 8.42409L8.90147 8.59287L8.85986 8.76586L8.83012 8.94209L8.80749 9.11859L8.79241 9.3026L8.78857 9.48684L8.79241 9.67056L8.80749 9.85475L8.83012 10.0311L8.85986 10.2115L8.90147 10.3841L8.95018 10.5533L9.00634 10.7221L9.07024 10.8837L9.14153 11.0451L9.22055 11.1991L9.30674 11.3492L9.40061 11.4957L9.49814 11.6345L9.6072 11.7697L9.71591 11.9011L9.83625 12.025L9.95992 12.1454L10.0912 12.258L10.2267 12.3632L10.3655 12.4645L10.512 12.5582L10.662 12.6447L10.816 12.7235L10.9737 12.7951L11.135 12.8587L11.3004 12.919L11.473 12.9639L11.6459 13.0052L11.8222 13.0352L12.0026 13.0616L12.1826 13.0729L12.3666 13.0765Z" fill="#FBB230"/>
<path fill-rule="evenodd" clip-rule="evenodd" d="M7.57223 13.0765L7.75619 13.0729L7.93624 13.0616L8.11664 13.0352L8.29286 13.0052L8.46576 12.9639L8.63865 12.919L8.80364 12.8587L8.96495 12.7951L9.12278 12.7235L9.27664 12.6447L9.42679 12.5582L9.5732 12.4645L9.712 12.3632L9.84748 12.258L9.97882 12.1454L10.1024 12.025L10.2228 11.9011L10.3318 11.7697L10.4406 11.6345L10.5381 11.4957L10.6319 11.3492L10.7181 11.1991L10.7972 11.0451L10.8685 10.8837L10.9323 10.7221L10.9885 10.5533L11.0375 10.3841L11.0788 10.2115L11.1086 10.0311L11.1311 9.85475L11.1463 9.67056L11.1501 9.48684L11.1463 9.3026L11.1311 9.11859L11.1086 8.94209L11.0788 8.76586L11.0375 8.59287L10.9885 8.42409L10.9323 8.25494L10.8685 8.09358L10.7972 7.93575L10.7181 7.78184L10.6319 7.63168L10.5381 7.48522L10.4406 7.34638L10.3318 7.21117L10.2228 7.07978L10.1024 6.95585L9.97882 6.83938L9.84748 6.72674L9.712 6.61796L9.5732 6.52019L9.42679 6.42624L9.27664 6.34004L9.12278 6.261L8.96495 6.18967L8.80364 6.12604L8.63865 6.06961L8.46576 6.02085L8.29286 5.97954L8.11664 5.94952L7.93624 5.92694L7.75619 5.91182L7.57223 5.9082L7.38833 5.91182L7.20415 5.92694L7.02404 5.94952L6.84759 5.97954L6.67515 6.02085L6.50226 6.06961L6.33705 6.12604L6.17183 6.18967L6.01429 6.261L5.86043 6.34004L5.71005 6.42624L5.56388 6.52019L5.42119 6.61796L5.2858 6.72674L5.15828 6.83938L5.03075 6.95585L4.9143 7.07978L4.80139 7.21117L4.69268 7.34638L4.59134 7.48522L4.50125 7.63168L4.41099 7.78184L4.33604 7.93575L4.2609 8.09358L4.19703 8.25494L4.14087 8.42409L4.09182 8.59287L4.05443 8.76586L4.0205 8.94209L3.99823 9.11859L3.98307 9.3026L3.97949 9.48684L3.98307 9.67056L3.99823 9.85475L4.0205 10.0311L4.05443 10.2115L4.09182 10.3841L4.14087 10.5533L4.19703 10.7221L4.2609 10.8837L4.33604 11.0451L4.41099 11.1991L4.50125 11.3492L4.59134 11.4957L4.69268 11.6345L4.80139 11.7697L4.9143 11.9011L5.03075 12.025L5.15828 12.1454L5.2858 12.258L5.42119 12.3632L5.56388 12.4645L5.71005 12.5582L5.86043 12.6447L6.01429 12.7235L6.17183 12.7951L6.33705 12.8587L6.50226 12.919L6.67515 12.9639L6.84759 13.0052L7.02404 13.0352L7.20415 13.0616L7.38833 13.0729L7.57223 13.0765Z" fill="#EB2230"/>
<path fill-rule="evenodd" clip-rule="evenodd" d="M9.55078 7.28271H11.4544V7.0874H9.716L9.55078 7.28271Z" fill="#FBB230"/>
<path fill-rule="evenodd" clip-rule="evenodd" d="M9.26611 7.71435H11.4551V7.51904H9.37878L9.26611 7.71435Z" fill="#FBB230"/>
<path fill-rule="evenodd" clip-rule="evenodd" d="M9.05188 8.14647H11.4547V7.95117H9.1383L9.05188 8.14647Z" fill="#FBB230"/>
<path fill-rule="evenodd" clip-rule="evenodd" d="M8.9054 8.57815H11.4547V8.38672H8.9654L8.9054 8.57815Z" fill="#FBB230"/>
<path fill-rule="evenodd" clip-rule="evenodd" d="M8.99092 10.6738H11.4615V10.4785H8.93115L8.99092 10.6738Z" fill="#FBB230"/>
<path fill-rule="evenodd" clip-rule="evenodd" d="M9.17157 11.1054H11.4618V10.9102H9.08154L9.17157 11.1054Z" fill="#FBB230"/>
<path fill-rule="evenodd" clip-rule="evenodd" d="M9.43054 11.5371H11.4617V11.3418H9.30664L9.43054 11.5371Z" fill="#FBB230"/>
<path fill-rule="evenodd" clip-rule="evenodd" d="M9.78399 11.9692H11.4621V11.7739H9.61133L9.78399 11.9692Z" fill="#FBB230"/>
<path fill-rule="evenodd" clip-rule="evenodd" d="M8.81885 9.00997H11.4544V8.81836H8.85633L8.81885 9.00997Z" fill="#FBB230"/>
<path fill-rule="evenodd" clip-rule="evenodd" d="M10.4253 10.2421H11.4315V10.0469H10.463L10.4253 10.2421Z" fill="#FBB230"/>
<path fill-rule="evenodd" clip-rule="evenodd" d="M10.5045 9.80956H11.432V9.61426H10.5422L10.5045 9.80956Z" fill="#FBB230"/>
<path fill-rule="evenodd" clip-rule="evenodd" d="M8.75159 9.61426H9.01434V9.80956H8.76683L8.75159 9.61426Z" fill="#FBB230"/>
<path fill-rule="evenodd" clip-rule="evenodd" d="M15.6147 11.5073C15.7086 11.5073 15.7837 11.5861 15.7837 11.6761C15.7837 11.7701 15.7086 11.8452 15.6147 11.8452C15.5208 11.8452 15.4459 11.7701 15.4459 11.6761C15.4459 11.5861 15.5208 11.5073 15.6147 11.5073ZM15.6147 11.5373C15.6937 11.5373 15.7573 11.6012 15.7573 11.6761C15.7573 11.7552 15.6938 11.819 15.6147 11.819C15.5398 11.819 15.4756 11.7552 15.4756 11.6761C15.4756 11.6012 15.5398 11.5373 15.6147 11.5373Z" fill="#FBB230"/>
<path d="M15.5509 11.751V11.6084H15.6108C15.6257 11.6084 15.637 11.6084 15.6447 11.6122C15.6519 11.6158 15.656 11.6197 15.6596 11.6233C15.6632 11.631 15.667 11.6384 15.667 11.6459C15.667 11.6572 15.6632 11.6684 15.6596 11.6723C15.6519 11.6797 15.6409 11.6836 15.6293 11.6871C15.637 11.691 15.6408 11.6949 15.6447 11.6984C15.6483 11.7023 15.6559 11.7097 15.6596 11.721L15.6783 11.751H15.6447L15.6218 11.7172C15.6179 11.7059 15.6107 11.7023 15.6069 11.6985C15.6069 11.6949 15.6031 11.6949 15.5994 11.691C15.5957 11.691 15.5918 11.691 15.5844 11.691H15.5805V11.751H15.5509ZM15.5806 11.6684H15.5996C15.6145 11.6684 15.622 11.6684 15.6258 11.6648C15.6294 11.6648 15.6335 11.6648 15.6335 11.6609C15.6371 11.6572 15.6371 11.6536 15.6371 11.6497C15.6371 11.6458 15.6371 11.6422 15.6335 11.6384C15.6294 11.6345 15.6258 11.6345 15.622 11.6309C15.622 11.6309 15.6145 11.6309 15.6032 11.6309H15.5807V11.6684H15.5806Z" fill="#FBB230"/>
<path fill-rule="evenodd" clip-rule="evenodd" d="M15.5765 10.0957C15.6704 10.0957 15.7453 10.1708 15.7453 10.2648C15.7453 10.3587 15.6704 10.4336 15.5765 10.4336C15.4826 10.4336 15.4077 10.3587 15.4077 10.2648C15.4077 10.1708 15.4826 10.0957 15.5765 10.0957ZM15.5765 10.1257C15.6555 10.1257 15.7192 10.1895 15.7192 10.2648C15.7192 10.3435 15.6556 10.4074 15.5765 10.4074C15.4975 10.4074 15.4338 10.3435 15.4338 10.2648C15.4338 10.1896 15.4975 10.1257 15.5765 10.1257Z" fill="white"/>
<path d="M15.5127 10.3354V10.1963H15.5728C15.5878 10.1963 15.5992 10.1963 15.6066 10.2001C15.6104 10.2001 15.6176 10.2076 15.6215 10.2114C15.6253 10.2189 15.6289 10.2263 15.6289 10.2341C15.6289 10.2453 15.6253 10.2527 15.6176 10.2601C15.614 10.2676 15.6028 10.2714 15.5915 10.2753C15.5953 10.2789 15.6028 10.2828 15.6066 10.2866C15.6104 10.2902 15.614 10.2977 15.6215 10.309L15.6404 10.3354H15.6066L15.5839 10.3053C15.5765 10.2941 15.5727 10.2866 15.5689 10.2866C15.5652 10.2828 15.5652 10.2789 15.5616 10.2789C15.5575 10.2789 15.554 10.2789 15.5465 10.2789H15.5391V10.3354L15.5127 10.3354ZM15.5391 10.2566H15.5617C15.5765 10.2566 15.584 10.2566 15.5878 10.2528C15.5915 10.2528 15.5953 10.2489 15.5953 10.2489C15.5992 10.2453 15.5992 10.2414 15.5992 10.2376C15.5992 10.2341 15.5953 10.2263 15.5953 10.2263C15.5915 10.2228 15.5878 10.2189 15.584 10.2189C15.5803 10.2189 15.5728 10.2189 15.5617 10.2189H15.5392L15.5391 10.2566Z" fill="white"/>
<path fill-rule="evenodd" clip-rule="evenodd" d="M13.1632 10.362L13.4072 9.08545H13.7112L13.7489 9.2168C13.8051 9.16035 13.8989 9.08545 14.0867 9.08545L13.9928 9.42339C13.9103 9.42339 13.7825 9.40826 13.6776 9.65605C13.5988 9.8439 13.5611 10.1554 13.5198 10.362H13.1632Z" fill="white"/>
<path fill-rule="evenodd" clip-rule="evenodd" d="M8.55988 8.76611H8.89747L8.82251 9.104H9.01031L8.95392 9.36681H8.78509L8.69117 9.8738C8.67249 9.96773 8.69117 10.0617 8.87896 10.0239L8.84154 10.3057C8.63885 10.4596 8.23306 10.3469 8.2969 9.96773L8.55988 8.76611Z" fill="white"/>
<path fill-rule="evenodd" clip-rule="evenodd" d="M10.0657 9.79874C10.1032 9.59221 10.1971 9.08545 9.59268 9.08545C9.02964 9.08545 8.95446 9.64866 8.95446 9.72356C8.93595 9.79874 8.93595 10.362 9.53646 10.362C9.68655 10.362 9.89692 10.3432 9.99079 10.3057L10.047 10.0428C9.99079 10.0617 9.79921 10.0805 9.64913 10.0805C9.51778 10.0805 9.29257 10.0805 9.32999 9.79869L10.0657 9.79874Z" fill="white"/>
<path fill-rule="evenodd" clip-rule="evenodd" d="M5.96932 10.3618L6.26972 8.82227H5.68403L5.27098 9.76112L5.19583 8.82227H4.6515L4.35107 10.3618H4.68894L4.91443 9.25413L5.00831 10.3618H5.32744L5.81539 9.27287L5.60884 10.3618H5.96932Z" fill="white"/>
<path fill-rule="evenodd" clip-rule="evenodd" d="M6.36302 9.12273L6.3068 9.40451C6.40072 9.40451 6.62588 9.3668 6.73849 9.3668C6.85115 9.3668 7.00124 9.34812 6.94508 9.53591C6.85115 9.53591 6.23155 9.44198 6.13769 9.98645C6.08537 10.3469 6.51327 10.4784 6.77597 10.3057L6.81362 10.3806H7.13253L7.2641 9.68594C7.40296 9.05883 6.7986 9.04754 6.36302 9.12273Z" fill="white"/>
<path fill-rule="evenodd" clip-rule="evenodd" d="M11.9536 9.23524C11.8672 9.18257 11.8146 9.18257 11.7058 9.18257C11.6006 9.18257 11.3528 9.28779 11.3189 9.56928C11.2663 9.92234 11.4954 10.0802 11.8295 9.97495L11.9198 10.2754C11.3492 10.5607 10.8045 10.1176 10.9848 9.42664C11.1311 8.9047 11.822 8.58939 12.1676 9.0212L11.9536 9.23524Z" fill="white"/>
<path fill-rule="evenodd" clip-rule="evenodd" d="M14.9307 9.23535C14.0107 8.54431 13.654 10.3618 14.3674 10.3618C14.48 10.3618 14.5929 10.3056 14.6678 10.2678L14.7052 10.3618H15.0808L15.3812 8.74707H15.0244L14.9307 9.23535Z" fill="white"/>
<path fill-rule="evenodd" clip-rule="evenodd" d="M12.2239 9.12273L12.1676 9.40451C12.2612 9.40451 12.4868 9.3668 12.5992 9.3668C12.7121 9.3668 12.8433 9.34812 12.8059 9.53591C12.7121 9.53591 12.0925 9.44198 11.9989 9.98645C11.9608 10.2492 12.1864 10.3806 12.3554 10.3806C12.5242 10.3806 12.5806 10.3431 12.6368 10.3057L12.6743 10.3806H12.9937L13.125 9.68594C13.2678 9.05883 12.6631 9.04754 12.2239 9.12273Z" fill="white"/>
<path fill-rule="evenodd" clip-rule="evenodd" d="M9.32959 9.55489H9.76134C9.81011 9.21311 9.40088 9.28079 9.32959 9.55489Z" fill="#EB2230"/>
<path fill-rule="evenodd" clip-rule="evenodd" d="M6.8894 9.7984C6.83295 9.7984 6.7016 9.76092 6.58871 9.83611C6.47639 9.91101 6.43868 10.0424 6.5702 10.0801C6.68258 10.1175 6.83295 10.0424 6.87037 9.92975L6.8894 9.7984Z" fill="#EB2230"/>
<path fill-rule="evenodd" clip-rule="evenodd" d="M14.7622 9.4418C14.6496 9.29143 14.4056 9.40438 14.3305 9.68581C14.2743 9.87361 14.3869 10.005 14.4995 10.005C14.7361 10.0051 14.8787 9.61836 14.7622 9.4418Z" fill="#FBB230"/>
<path fill-rule="evenodd" clip-rule="evenodd" d="M12.769 9.79889C12.7129 9.79889 12.5815 9.76141 12.4686 9.8366C12.3563 9.9115 12.3186 10.0429 12.4501 10.0806C12.5625 10.118 12.7316 10.0429 12.7503 9.93024L12.769 9.79889Z" fill="#FBB230"/>
<path fill-rule="evenodd" clip-rule="evenodd" d="M10.0654 10.3806L10.0845 10.2492L10.3097 9.104H10.6098L10.6473 9.23541C10.7037 9.17896 10.7976 9.104 10.9854 9.104L10.8914 9.44194C10.8202 9.44194 10.6698 9.42681 10.5572 9.72727C10.4933 9.89999 10.4559 10.193 10.422 10.3806H10.0654Z" fill="white"/>
<path fill-rule="evenodd" clip-rule="evenodd" d="M8.24839 9.41184H8.2332H8.21836L8.20352 9.408L8.18839 9.40439H8.17326L8.15836 9.40049C8.09068 9.3931 8.03446 9.3892 7.96701 9.3931C7.79412 9.40794 7.71922 9.51671 7.86547 9.59935C7.98191 9.66708 8.07217 9.65574 8.15068 9.73098C8.31979 9.88857 8.23332 10.1928 8.04552 10.3091L8.01194 10.3242L7.97446 10.3393L7.9332 10.3504L7.89578 10.3616C7.71544 10.3917 7.47148 10.3842 7.29492 10.3242L7.34369 10.0725C7.48633 10.1025 7.71928 10.1664 7.82805 10.0915C7.952 10.0089 7.83933 9.9111 7.74902 9.86984L7.70415 9.85488L7.65928 9.8362C7.30243 9.67448 7.38529 9.24267 7.72289 9.15264C7.85807 9.12261 7.99326 9.12261 8.13229 9.1339H8.15842C8.19234 9.13751 8.22237 9.14141 8.25234 9.1488H8.26724L8.27853 9.15264H8.28982L8.29721 9.15648H8.3085L8.24839 9.41184Z" fill="white"/>
</g>
</g>
<g clip-path="url(#clip1_8_459)">
<path d="M38.0005 20C43.5233 20 48.0005 15.5228 48.0005 10C48.0005 4.47715 43.5233 0 38.0005 0C32.4776 0 28.0005 4.47715 28.0005 10C28.0005 15.5228 32.4776 20 38.0005 20Z" fill="#26A17B"/>
<path d="M43.4661 7.66649C42.9667 7.31212 42.4324 6.93399 41.9099 6.55899C41.898 6.55024 41.8867 6.54149 41.8724 6.53274C41.8111 6.48247 41.7418 6.44295 41.6674 6.41587L41.6611 6.41274C40.263 6.06967 38.8653 5.72509 37.468 5.37899L33.728 4.45587L33.6299 4.42962C33.5174 4.39774 33.3874 4.36212 33.2486 4.37962C33.2106 4.38544 33.1743 4.39952 33.1424 4.42087L33.1074 4.45024C33.0635 4.49518 33.03 4.54915 33.0092 4.60837L33.0005 4.63212V4.76649L33.0067 4.78712C33.7942 7.02774 34.603 9.30087 35.383 11.5002C35.9836 13.194 36.608 14.9477 37.2167 16.6702C37.2542 16.7871 37.3611 16.864 37.4942 16.8752H37.523C37.5812 16.8767 37.6387 16.8626 37.6895 16.8342C37.7403 16.8058 37.7825 16.7643 37.8117 16.714L40.0992 13.3309C40.6561 12.5077 41.2136 11.6821 41.7711 10.859L42.4555 9.84524C42.8305 9.28899 43.218 8.71462 43.6024 8.15524L43.6224 8.12649V8.09087C43.6311 7.98837 43.6336 7.77837 43.4661 7.66649ZM40.7861 8.89962C40.2486 9.18337 39.7005 9.47649 39.1486 9.76649L40.1136 8.71774C40.5149 8.27837 40.9336 7.82399 41.3436 7.37899L41.3524 7.37024C41.3867 7.32337 41.4305 7.27962 41.4767 7.23274C41.508 7.20087 41.543 7.16837 41.5749 7.13024C41.7886 7.28024 42.0049 7.43212 42.213 7.58149C42.363 7.68962 42.5161 7.79837 42.6724 7.90649C42.0414 8.23336 41.4127 8.56441 40.7861 8.89962ZM39.4061 8.75899C38.993 9.21274 38.5655 9.67837 38.1411 10.1384C37.3175 9.12493 36.4915 8.11347 35.663 7.10399L34.5511 5.74774L34.5486 5.74462C34.4649 5.64837 34.3836 5.54274 34.303 5.44337C34.2511 5.37587 34.1961 5.31149 34.1411 5.24399C34.4761 5.33149 34.8142 5.41399 35.1461 5.49274C35.438 5.56337 35.7411 5.63649 36.0386 5.71274L41.0667 6.95149C40.5092 7.55524 39.9486 8.16712 39.4061 8.75899ZM37.953 14.4677C37.9849 14.1602 38.0199 13.844 38.0486 13.5334C38.0749 13.284 38.1005 13.0296 38.1267 12.7865C38.1667 12.3965 38.2105 11.9927 38.2455 11.5971L38.2536 11.5271C38.2824 11.2746 38.3111 11.0146 38.3286 10.7534C38.3622 10.7344 38.3971 10.7177 38.433 10.7034C38.4761 10.6834 38.5192 10.6659 38.5624 10.6396C39.2294 10.2841 39.8976 9.93055 40.5667 9.57899C41.2342 9.22774 41.9186 8.86399 42.5974 8.50399C41.9815 9.40852 41.3682 10.3148 40.7574 11.2227C40.2405 11.9865 39.7092 12.7746 39.1805 13.5509C38.973 13.8615 38.7561 14.1777 38.5511 14.4821C38.3199 14.8221 38.083 15.1702 37.8524 15.5196C37.8811 15.1677 37.9155 14.8134 37.953 14.4677ZM33.928 5.93524C33.8905 5.82962 33.8492 5.72149 33.8149 5.61899C34.5949 6.57399 35.3799 7.53462 36.1455 8.46587C36.5411 8.94899 36.9367 9.42962 37.3324 9.91587C37.4105 10.0065 37.4886 10.1034 37.5636 10.1971C37.6617 10.3171 37.7599 10.4434 37.8667 10.5634C37.8317 10.8646 37.803 11.1696 37.7711 11.4621C37.7511 11.6671 37.7311 11.8727 37.708 12.0809V12.0834C37.6992 12.2146 37.6817 12.3471 37.6674 12.4759L37.6011 13.059L37.598 13.079C37.5461 13.6709 37.4824 14.2684 37.4217 14.8484C37.3961 15.0884 37.373 15.3346 37.3467 15.5809C37.3324 15.5371 37.3155 15.4927 37.3005 15.4515C37.2565 15.3321 37.2142 15.2121 37.1736 15.0915L36.8642 14.2215L33.9274 5.93524" fill="white"/>
</g>
<g clip-path="url(#clip2_8_459)">
<path d="M66.0002 20C71.5231 20 76.0002 15.5228 76.0002 10C76.0002 4.47717 71.5231 0 66.0002 0C60.4774 0 56.0002 4.47717 56.0002 10C56.0002 15.5228 60.4774 20 66.0002 20Z" fill="#8DC351"/>
<path d="M70.6836 8.30652C70.2103 8.06652 69.6403 8.01652 68.9803 8.15986C69.5503 7.41652 69.5703 6.60319 69.0403 5.72652C68.8503 5.40652 68.6203 5.15986 68.3469 4.98986C68.0736 4.81652 67.7736 4.71986 67.4369 4.69652C67.1036 4.67319 66.7603 4.69652 66.4169 4.76319C66.0703 4.83319 65.6903 4.94319 65.2736 5.09986L64.3603 3.18652L63.1903 3.74319L64.0769 5.60319C63.8736 5.69986 63.5669 5.85319 63.1569 6.05986L62.2636 4.18319L61.0936 4.73986L62.0069 6.65319C61.8436 6.73652 61.5969 6.85652 61.2736 7.01319L59.6603 7.77319L60.2536 9.01986L61.0969 8.61652C61.4803 8.43319 61.7903 8.49652 62.0203 8.80986L63.0603 10.9899C63.1103 10.9665 63.1536 10.9499 63.1869 10.9399L63.0669 10.9965L64.5236 14.0499C64.6069 14.3265 64.5203 14.5265 64.2669 14.6465L63.4236 15.0499L63.8503 16.5532L65.3703 15.8299C65.4669 15.7832 65.6069 15.7199 65.7903 15.6332C65.9736 15.5499 66.1103 15.4865 66.2036 15.4399L67.1269 17.3765L68.2969 16.8199L67.3836 14.9065C67.6003 14.8099 67.9103 14.6665 68.3136 14.4732L69.2236 16.3799L70.3936 15.8232L69.4703 13.8865C69.8769 13.6699 70.2269 13.4532 70.5203 13.2465C70.8136 13.0365 71.0803 12.8032 71.3169 12.5432C71.5536 12.2832 71.7269 12.0199 71.8403 11.7465C71.9536 11.4765 72.0103 11.1732 72.0069 10.8365C72.0069 10.5032 71.9369 10.1465 71.8003 9.76986C71.5303 9.03319 71.1603 8.54319 70.6836 8.30652ZM63.8369 7.41319C63.8736 7.39652 63.9703 7.34652 64.1336 7.26652C64.2969 7.18652 64.4336 7.11652 64.5403 7.06319C64.6469 7.00986 64.7969 6.94652 64.9903 6.87319C65.1836 6.79986 65.3469 6.74652 65.4869 6.70986C65.6269 6.67319 65.7836 6.64986 65.9636 6.63652C66.1436 6.62319 66.2969 6.63652 66.4303 6.67652C66.5603 6.71652 66.6903 6.78652 66.8136 6.88652C66.9369 6.98652 67.0403 7.11986 67.1203 7.28652C67.1869 7.42986 67.2269 7.56986 67.2369 7.70652C67.2469 7.84319 67.2236 7.97319 67.1703 8.09652C67.1169 8.21986 67.0569 8.33319 66.9869 8.43652C66.9169 8.53986 66.8169 8.64652 66.6869 8.75319C66.5536 8.85986 66.4369 8.94986 66.3369 9.02319C66.2336 9.09652 66.1036 9.17652 65.9403 9.26319C65.7769 9.34986 65.6536 9.41652 65.5669 9.45986C65.4836 9.50319 65.3636 9.55986 65.2136 9.62986C65.0636 9.69986 64.9736 9.73986 64.9503 9.74986L63.8369 7.41319ZM69.4969 11.0632C69.5036 11.2032 69.4903 11.3332 69.4569 11.4565C69.4203 11.5799 69.3569 11.7032 69.2669 11.8265C69.1736 11.9532 69.0803 12.0632 68.9836 12.1565C68.8869 12.2532 68.7636 12.3565 68.6136 12.4632C68.4636 12.5732 68.3303 12.6632 68.2103 12.7332C68.0936 12.8065 67.9503 12.8865 67.7803 12.9765C67.6103 13.0665 67.4803 13.1332 67.3836 13.1799C67.2869 13.2265 67.1636 13.2832 67.0169 13.3499C66.8703 13.4165 66.7736 13.4599 66.7336 13.4799L65.5103 10.9132C65.5503 10.8932 65.6703 10.8332 65.8669 10.7332C66.0636 10.6332 66.2269 10.5532 66.3536 10.4932C66.4803 10.4332 66.6569 10.3565 66.8869 10.2665C67.1169 10.1765 67.3136 10.1099 67.4803 10.0665C67.6469 10.0232 67.8336 9.99319 68.0436 9.96986C68.2536 9.94652 68.4369 9.95652 68.5903 9.99319C68.7436 10.0299 68.8936 10.1032 69.0369 10.2099C69.1803 10.3165 69.2969 10.4599 69.3836 10.6399C69.4536 10.7832 69.4903 10.9232 69.4969 11.0632Z" fill="white"/>
</g>
<g clip-path="url(#clip3_8_459)">
<path d="M94.0002 20C99.5231 20 104 15.5228 104 10C104 4.47715 99.5231 0 94.0002 0C88.4774 0 84.0002 4.47715 84.0002 10C84.0002 15.5228 88.4774 20 94.0002 20Z" fill="#EB0029"/>
<path fill-rule="evenodd" clip-rule="evenodd" d="M89.4792 5.35789C89.5709 5.60145 93.4384 15.3033 93.4476 15.3125C93.4581 15.323 98.9863 8.61722 99.0002 8.57708C99.0072 8.557 97.0788 6.72706 97.0279 6.7055C97.0066 6.69643 95.3097 6.38145 93.2571 6.00553C91.2045 5.62961 89.5105 5.31867 89.4926 5.31458C89.465 5.30823 89.463 5.31475 89.4792 5.35789ZM93.6187 6.60615C95.1064 6.87897 96.3237 7.10801 96.3237 7.11515C96.3237 7.12834 94.3062 8.80747 94.2432 8.84673C94.2138 8.86508 93.9769 8.6762 92.5614 7.50604C90.6872 5.95672 90.8716 6.11126 90.8954 6.11061C90.9055 6.11034 92.131 6.33333 93.6187 6.60615ZM92.2579 7.93618C93.4777 8.94626 93.9835 9.37615 93.9786 9.39878C93.9748 9.41639 93.8538 10.4137 93.7096 11.6151C93.5654 12.8164 93.4432 13.8122 93.4379 13.8278C93.4327 13.8435 92.7729 12.211 91.9716 10.2002C91.1703 8.18936 90.5098 6.53211 90.5038 6.51743C90.4978 6.50275 90.5013 6.49409 90.5116 6.49819C90.5219 6.50226 91.3077 7.14937 92.2579 7.93618ZM97.5065 7.86534C97.8215 8.16337 98.0759 8.41047 98.0719 8.4145C98.0592 8.42712 94.9846 8.97947 94.9569 8.97408C94.9335 8.9695 96.8931 7.32351 96.922 7.32351C96.9284 7.32351 97.1915 7.56734 97.5065 7.86534ZM97.9606 9.01704C97.8705 9.14803 93.9795 13.8579 93.9758 13.8403C93.9734 13.8283 94.0865 12.8703 94.2271 11.7113L94.4829 9.604L96.1892 9.29308C97.1277 9.12204 97.9161 8.98133 97.9413 8.98034C97.9831 8.9787 97.9847 8.98189 97.9606 9.01704Z" fill="white"/>
</g>
<g clip-path="url(#clip4_8_459)">
<path d="M122 20C127.523 20 132 15.5228 132 10C132 4.47717 127.523 0 122 0C116.477 0 112 4.47717 112 10C112 15.5228 116.477 20 122 20Z" fill="url(#paint0_linear_8_459)"/>
<path d="M122 12.1202L118.163 10.2969L122 17.0002L125.837 10.2969L122 12.1202Z" fill="white"/>
<path d="M125.417 8.93667L122 3L118.577 8.94333L122 7.32L125.417 8.93667Z" fill="white"/>
<path d="M118.873 9.71331L122 11.1933L125.13 9.70998L122 8.22998L118.873 9.71331Z" fill="white"/>
</g>
<g clip-path="url(#clip5_8_459)">
<path d="M149.969 0.0419922L152.429 2.56111L146.235 8.75517L143.775 6.29533L149.969 0.0419922Z" fill="#F0B90B" stroke="#F0B90B" stroke-width="0.0592733"/>
<path d="M153.703 3.77637L156.163 6.29548L146.235 16.2238L143.775 13.7639L153.703 3.77637Z" fill="#F0B90B" stroke="#F0B90B" stroke-width="0.0592733"/>
<path d="M142.501 7.51074L144.961 10.0299L142.501 12.4897L140.041 10.0299L142.501 7.51074Z" fill="#F0B90B" stroke="#F0B90B" stroke-width="0.0592733"/>
<path d="M157.438 7.51074L159.898 10.0299L149.969 19.9581L147.51 17.4983L157.438 7.51074Z" fill="#F0B90B" stroke="#F0B90B" stroke-width="0.0592733"/>
</g>
<defs>
<linearGradient id="paint0_linear_8_459" x1="122" y1="0" x2="122" y2="20" gradientUnits="userSpaceOnUse">
<stop stop-color="#4A819F"/>
<stop offset="1" stop-color="#034681"/>
</linearGradient>
<clipPath id="clip0_8_459">
<rect width="20" height="12.4928" fill="white" transform="translate(0.000244141 3.2251)"/>
</clipPath>
<clipPath id="clip1_8_459">
<rect width="20" height="20" fill="white" transform="translate(28)"/>
</clipPath>
<clipPath id="clip2_8_459">
<rect width="20" height="20" fill="white" transform="translate(56)"/>
</clipPath>
<clipPath id="clip3_8_459">
<rect width="20" height="20" fill="white" transform="translate(84)"/>
</clipPath>
<clipPath id="clip4_8_459">
<rect width="20" height="20" fill="white" transform="translate(112)"/>
</clipPath>
<clipPath id="clip5_8_459">
<rect width="19.9401" height="20" fill="white" transform="translate(140)"/>
</clipPath>
</defs>
</svg>
