<svg width="48" height="48" viewBox="0 0 48 48" fill="none" xmlns="http://www.w3.org/2000/svg">
<rect width="48" height="48" rx="24" fill="#F7F7F7"/>
<path fill-rule="evenodd" clip-rule="evenodd" d="M22.1795 20.3604C22.1795 19.589 22.8346 19.2923 23.9197 19.2923C25.4756 19.2923 27.4409 19.7473 28.9969 20.5582V15.9099C27.2976 15.2571 25.6189 15 23.9197 15C19.7638 15 17 17.0967 17 20.5978C17 26.0571 24.7795 25.1868 24.7795 27.5407C24.7795 28.4505 23.9606 28.7473 22.8142 28.7473C21.115 28.7473 18.9449 28.0747 17.2252 27.1648V31.8725C19.1291 32.6637 21.0535 33 22.8142 33C27.0724 33 30 30.9626 30 27.422C29.9795 21.5275 22.1795 22.5758 22.1795 20.3604Z" fill="#635BFF"/>
</svg>
