<svg width="160" height="20" viewBox="0 0 160 20" fill="none" xmlns="http://www.w3.org/2000/svg">
<g clip-path="url(#clip0_8_527)">
<path d="M10.0005 20C15.5233 20 20.0005 15.5228 20.0005 10C20.0005 4.47715 15.5233 0 10.0005 0C4.47764 0 0.000488281 4.47715 0.000488281 10C0.000488281 15.5228 4.47764 20 10.0005 20Z" fill="#26A17B"/>
<path d="M15.4661 7.66649C14.9667 7.31212 14.4324 6.93399 13.9099 6.55899C13.898 6.55024 13.8867 6.54149 13.8724 6.53274C13.8111 6.48247 13.7418 6.44295 13.6674 6.41587L13.6611 6.41274C12.263 6.06967 10.8653 5.72509 9.46799 5.37899L5.72799 4.45587L5.62986 4.42962C5.51736 4.39774 5.38736 4.36212 5.24861 4.37962C5.21061 4.38544 5.17434 4.39952 5.14236 4.42087L5.10736 4.45024C5.06354 4.49518 5.03005 4.54915 5.00924 4.60837L5.00049 4.63212V4.76649L5.00674 4.78712C5.79424 7.02774 6.60299 9.30087 7.38299 11.5002C7.98361 13.194 8.60799 14.9477 9.21674 16.6702C9.25424 16.7871 9.36111 16.864 9.49424 16.8752H9.52299C9.58116 16.8767 9.63866 16.8626 9.68946 16.8342C9.74026 16.8058 9.7825 16.7643 9.81174 16.714L12.0992 13.3309C12.6561 12.5077 13.2136 11.6821 13.7711 10.859L14.4555 9.84524C14.8305 9.28899 15.218 8.71462 15.6024 8.15524L15.6224 8.12649V8.09087C15.6311 7.98837 15.6336 7.77837 15.4661 7.66649ZM12.7861 8.89962C12.2486 9.18337 11.7005 9.47649 11.1486 9.76649L12.1136 8.71774C12.5149 8.27837 12.9336 7.82399 13.3436 7.37899L13.3524 7.37024C13.3867 7.32337 13.4305 7.27962 13.4767 7.23274C13.508 7.20087 13.543 7.16837 13.5749 7.13024C13.7886 7.28024 14.0049 7.43212 14.213 7.58149C14.363 7.68962 14.5161 7.79837 14.6724 7.90649C14.0414 8.23336 13.4127 8.56441 12.7861 8.89962ZM11.4061 8.75899C10.993 9.21274 10.5655 9.67837 10.1411 10.1384C9.3175 9.12493 8.49145 8.11347 7.66299 7.10399L6.55111 5.74774L6.54861 5.74462C6.46486 5.64837 6.38361 5.54274 6.30299 5.44337C6.25111 5.37587 6.19611 5.31149 6.14111 5.24399C6.47611 5.33149 6.81424 5.41399 7.14611 5.49274C7.43799 5.56337 7.74111 5.63649 8.03861 5.71274L13.0667 6.95149C12.5092 7.55524 11.9486 8.16712 11.4061 8.75899ZM9.95299 14.4677C9.98486 14.1602 10.0199 13.844 10.0486 13.5334C10.0749 13.284 10.1005 13.0296 10.1267 12.7865C10.1667 12.3965 10.2105 11.9927 10.2455 11.5971L10.2536 11.5271C10.2824 11.2746 10.3111 11.0146 10.3286 10.7534C10.3622 10.7344 10.3971 10.7177 10.433 10.7034C10.4761 10.6834 10.5192 10.6659 10.5624 10.6396C11.2294 10.2841 11.8976 9.93055 12.5667 9.57899C13.2342 9.22774 13.9186 8.86399 14.5974 8.50399C13.9815 9.40852 13.3682 10.3148 12.7574 11.2227C12.2405 11.9865 11.7092 12.7746 11.1805 13.5509C10.973 13.8615 10.7561 14.1777 10.5511 14.4821C10.3199 14.8221 10.083 15.1702 9.85236 15.5196C9.88111 15.1677 9.91549 14.8134 9.95299 14.4677ZM5.92799 5.93524C5.89049 5.82962 5.84924 5.72149 5.81486 5.61899C6.59486 6.57399 7.37986 7.53462 8.14549 8.46587C8.54111 8.94899 8.93674 9.42962 9.33236 9.91587C9.41049 10.0065 9.48861 10.1034 9.56361 10.1971C9.66174 10.3171 9.75986 10.4434 9.86674 10.5634C9.83174 10.8646 9.80299 11.1696 9.77111 11.4621C9.75111 11.6671 9.73111 11.8727 9.70799 12.0809V12.0834C9.69924 12.2146 9.68174 12.3471 9.66736 12.4759L9.60111 13.059L9.59799 13.079C9.54611 13.6709 9.48236 14.2684 9.42174 14.8484C9.39611 15.0884 9.37299 15.3346 9.34674 15.5809C9.33236 15.5371 9.31549 15.4927 9.30049 15.4515C9.25646 15.3321 9.21416 15.2121 9.17361 15.0915L8.86424 14.2215L5.92736 5.93524" fill="white"/>
</g>
<g clip-path="url(#clip1_8_527)">
<mask id="mask0_8_527" style="mask-type:luminance" maskUnits="userSpaceOnUse" x="28" y="3" width="21" height="13">
<path d="M48.001 3.2251H28.001V15.7179H48.001V3.2251Z" fill="white"/>
</mask>
<g mask="url(#mask0_8_527)">
<path fill-rule="evenodd" clip-rule="evenodd" d="M47.9617 15.0708C47.9617 15.4387 47.6613 15.7392 47.2935 15.7392H28.6458C28.2779 15.7392 27.9775 15.4387 27.9775 15.0708V3.91454C27.9775 3.54659 28.2779 3.24609 28.6458 3.24609H47.2935C47.6614 3.24609 47.9618 3.54659 47.9618 3.91454L47.9617 15.0708Z" fill="#14477C"/>
<path fill-rule="evenodd" clip-rule="evenodd" d="M40.3666 13.0765L40.5505 13.0729L40.7347 13.0616L40.9148 13.0352L41.0912 13.0052L41.2639 12.9639L41.4366 12.919L41.6018 12.8587L41.767 12.7951L41.9245 12.7235L42.0784 12.6447L42.2287 12.5582L42.3752 12.4645L42.5179 12.3632L42.653 12.258L42.7806 12.1454L42.908 12.025L43.0246 11.9011L43.1374 11.7697L43.2461 11.6345L43.3475 11.4957L43.4376 11.3492L43.5278 11.1991L43.6028 11.0451L43.6779 10.8837L43.7418 10.7221L43.7982 10.5533L43.847 10.3841L43.8881 10.2115L43.9183 10.0311L43.9409 9.85475L43.9557 9.67056L43.9593 9.48684L43.9557 9.3026L43.9409 9.11859L43.9183 8.94209L43.8881 8.76586L43.847 8.59287L43.7982 8.42409L43.7418 8.25494L43.6779 8.09358L43.6028 7.93575L43.5278 7.78184L43.4376 7.63168L43.3475 7.48522L43.2461 7.34638L43.1374 7.21117L43.0246 7.07978L42.908 6.95585L42.7806 6.83938L42.653 6.72674L42.5179 6.61796L42.3752 6.52019L42.2287 6.42624L42.0784 6.34004L41.9245 6.261L41.767 6.18967L41.6018 6.12604L41.4366 6.06961L41.2639 6.02085L41.0912 5.97954L40.9148 5.94952L40.7347 5.92694L40.5505 5.91182L40.3666 5.9082L40.1826 5.91182L40.0026 5.92694L39.8222 5.94952L39.6459 5.97954L39.473 6.02085L39.3004 6.06961L39.135 6.12604L38.9737 6.18967L38.816 6.261L38.662 6.34004L38.512 6.42624L38.3655 6.52019L38.2267 6.61796L38.0912 6.72674L37.9599 6.83938L37.8363 6.95585L37.7159 7.07978L37.6072 7.21117L37.4981 7.34638L37.4006 7.48522L37.3067 7.63168L37.2206 7.78184L37.1415 7.93575L37.0702 8.09358L37.0063 8.25494L36.9502 8.42409L36.9015 8.59287L36.8599 8.76586L36.8301 8.94209L36.8075 9.11859L36.7924 9.3026L36.7886 9.48684L36.7924 9.67056L36.8075 9.85475L36.8301 10.0311L36.8599 10.2115L36.9015 10.3841L36.9502 10.5533L37.0063 10.7221L37.0702 10.8837L37.1415 11.0451L37.2206 11.1991L37.3067 11.3492L37.4006 11.4957L37.4981 11.6345L37.6072 11.7697L37.7159 11.9011L37.8363 12.025L37.9599 12.1454L38.0912 12.258L38.2267 12.3632L38.3655 12.4645L38.512 12.5582L38.662 12.6447L38.816 12.7235L38.9737 12.7951L39.135 12.8587L39.3004 12.919L39.473 12.9639L39.6459 13.0052L39.8222 13.0352L40.0026 13.0616L40.1826 13.0729L40.3666 13.0765Z" fill="#FBB230"/>
<path fill-rule="evenodd" clip-rule="evenodd" d="M35.5722 13.0765L35.7562 13.0729L35.9362 13.0616L36.1166 13.0352L36.2929 13.0052L36.4658 12.9639L36.6386 12.919L36.8036 12.8587L36.965 12.7951L37.1228 12.7235L37.2766 12.6447L37.4268 12.5582L37.5732 12.4645L37.712 12.3632L37.8475 12.258L37.9788 12.1454L38.1024 12.025L38.2228 11.9011L38.3318 11.7697L38.4406 11.6345L38.5381 11.4957L38.6319 11.3492L38.7181 11.1991L38.7972 11.0451L38.8685 10.8837L38.9323 10.7221L38.9885 10.5533L39.0375 10.3841L39.0788 10.2115L39.1086 10.0311L39.1311 9.85475L39.1463 9.67056L39.1501 9.48684L39.1463 9.3026L39.1311 9.11859L39.1086 8.94209L39.0788 8.76586L39.0375 8.59287L38.9885 8.42409L38.9323 8.25494L38.8685 8.09358L38.7972 7.93575L38.7181 7.78184L38.6319 7.63168L38.5381 7.48522L38.4406 7.34638L38.3318 7.21117L38.2228 7.07978L38.1024 6.95585L37.9788 6.83938L37.8475 6.72674L37.712 6.61796L37.5732 6.52019L37.4268 6.42624L37.2766 6.34004L37.1228 6.261L36.965 6.18967L36.8036 6.12604L36.6386 6.06961L36.4658 6.02085L36.2929 5.97954L36.1166 5.94952L35.9362 5.92694L35.7562 5.91182L35.5722 5.9082L35.3883 5.91182L35.2042 5.92694L35.024 5.94952L34.8476 5.97954L34.6752 6.02085L34.5023 6.06961L34.337 6.12604L34.1718 6.18967L34.0143 6.261L33.8604 6.34004L33.71 6.42624L33.5639 6.52019L33.4212 6.61796L33.2858 6.72674L33.1583 6.83938L33.0308 6.95585L32.9143 7.07978L32.8014 7.21117L32.6927 7.34638L32.5913 7.48522L32.5013 7.63168L32.411 7.78184L32.336 7.93575L32.2609 8.09358L32.197 8.25494L32.1409 8.42409L32.0918 8.59287L32.0544 8.76586L32.0205 8.94209L31.9982 9.11859L31.9831 9.3026L31.9795 9.48684L31.9831 9.67056L31.9982 9.85475L32.0205 10.0311L32.0544 10.2115L32.0918 10.3841L32.1409 10.5533L32.197 10.7221L32.2609 10.8837L32.336 11.0451L32.411 11.1991L32.5013 11.3492L32.5913 11.4957L32.6927 11.6345L32.8014 11.7697L32.9143 11.9011L33.0308 12.025L33.1583 12.1454L33.2858 12.258L33.4212 12.3632L33.5639 12.4645L33.71 12.5582L33.8604 12.6447L34.0143 12.7235L34.1718 12.7951L34.337 12.8587L34.5023 12.919L34.6752 12.9639L34.8476 13.0052L35.024 13.0352L35.2042 13.0616L35.3883 13.0729L35.5722 13.0765Z" fill="#EB2230"/>
<path fill-rule="evenodd" clip-rule="evenodd" d="M37.5508 7.28271H39.4544V7.0874H37.716L37.5508 7.28271Z" fill="#FBB230"/>
<path fill-rule="evenodd" clip-rule="evenodd" d="M37.2661 7.71435H39.4551V7.51904H37.3788L37.2661 7.71435Z" fill="#FBB230"/>
<path fill-rule="evenodd" clip-rule="evenodd" d="M37.0519 8.14647H39.4547V7.95117H37.1383L37.0519 8.14647Z" fill="#FBB230"/>
<path fill-rule="evenodd" clip-rule="evenodd" d="M36.9054 8.57815H39.4547V8.38672H36.9654L36.9054 8.57815Z" fill="#FBB230"/>
<path fill-rule="evenodd" clip-rule="evenodd" d="M36.9909 10.6738H39.4615V10.4785H36.9312L36.9909 10.6738Z" fill="#FBB230"/>
<path fill-rule="evenodd" clip-rule="evenodd" d="M37.1716 11.1054H39.4618V10.9102H37.0815L37.1716 11.1054Z" fill="#FBB230"/>
<path fill-rule="evenodd" clip-rule="evenodd" d="M37.4305 11.5371H39.4617V11.3418H37.3066L37.4305 11.5371Z" fill="#FBB230"/>
<path fill-rule="evenodd" clip-rule="evenodd" d="M37.784 11.9692H39.4621V11.7739H37.6113L37.784 11.9692Z" fill="#FBB230"/>
<path fill-rule="evenodd" clip-rule="evenodd" d="M36.8188 9.00997H39.4544V8.81836H36.8563L36.8188 9.00997Z" fill="#FBB230"/>
<path fill-rule="evenodd" clip-rule="evenodd" d="M38.4253 10.2421H39.4315V10.0469H38.463L38.4253 10.2421Z" fill="#FBB230"/>
<path fill-rule="evenodd" clip-rule="evenodd" d="M38.5045 9.80956H39.432V9.61426H38.5422L38.5045 9.80956Z" fill="#FBB230"/>
<path fill-rule="evenodd" clip-rule="evenodd" d="M36.7516 9.61426H37.0143V9.80956H36.7668L36.7516 9.61426Z" fill="#FBB230"/>
<path fill-rule="evenodd" clip-rule="evenodd" d="M43.6147 11.5073C43.7086 11.5073 43.7837 11.5861 43.7837 11.6761C43.7837 11.7701 43.7086 11.8452 43.6147 11.8452C43.5208 11.8452 43.4459 11.7701 43.4459 11.6761C43.4459 11.5861 43.5208 11.5073 43.6147 11.5073ZM43.6147 11.5373C43.6937 11.5373 43.7573 11.6012 43.7573 11.6761C43.7573 11.7552 43.6938 11.819 43.6147 11.819C43.5398 11.819 43.4756 11.7552 43.4756 11.6761C43.4756 11.6012 43.5398 11.5373 43.6147 11.5373Z" fill="#FBB230"/>
<path d="M43.5509 11.751V11.6084H43.6108C43.6257 11.6084 43.637 11.6084 43.6447 11.6122C43.6519 11.6158 43.656 11.6197 43.6596 11.6233C43.6632 11.631 43.667 11.6384 43.667 11.6459C43.667 11.6572 43.6632 11.6684 43.6596 11.6723C43.6519 11.6797 43.6409 11.6836 43.6293 11.6871C43.637 11.691 43.6408 11.6949 43.6447 11.6984C43.6483 11.7023 43.6559 11.7097 43.6596 11.721L43.6783 11.751H43.6447L43.6218 11.7172C43.6179 11.7059 43.6107 11.7023 43.6069 11.6985C43.6069 11.6949 43.6031 11.6949 43.5994 11.691C43.5957 11.691 43.5918 11.691 43.5844 11.691H43.5805V11.751H43.5509ZM43.5806 11.6684H43.5996C43.6145 11.6684 43.622 11.6684 43.6258 11.6648C43.6294 11.6648 43.6335 11.6648 43.6335 11.6609C43.6371 11.6572 43.6371 11.6536 43.6371 11.6497C43.6371 11.6458 43.6371 11.6422 43.6335 11.6384C43.6294 11.6345 43.6258 11.6345 43.622 11.6309C43.622 11.6309 43.6145 11.6309 43.6032 11.6309H43.5807V11.6684H43.5806Z" fill="#FBB230"/>
<path fill-rule="evenodd" clip-rule="evenodd" d="M43.5765 10.0957C43.6704 10.0957 43.7453 10.1708 43.7453 10.2648C43.7453 10.3587 43.6704 10.4336 43.5765 10.4336C43.4826 10.4336 43.4077 10.3587 43.4077 10.2648C43.4077 10.1708 43.4826 10.0957 43.5765 10.0957ZM43.5765 10.1257C43.6555 10.1257 43.7192 10.1895 43.7192 10.2648C43.7192 10.3435 43.6556 10.4074 43.5765 10.4074C43.4975 10.4074 43.4338 10.3435 43.4338 10.2648C43.4338 10.1896 43.4975 10.1257 43.5765 10.1257Z" fill="white"/>
<path d="M43.5127 10.3354V10.1963H43.5728C43.5878 10.1963 43.5992 10.1963 43.6066 10.2001C43.6104 10.2001 43.6176 10.2076 43.6215 10.2114C43.6253 10.2189 43.6289 10.2263 43.6289 10.2341C43.6289 10.2453 43.6253 10.2527 43.6176 10.2601C43.614 10.2676 43.6028 10.2714 43.5915 10.2753C43.5953 10.2789 43.6028 10.2828 43.6066 10.2866C43.6104 10.2902 43.614 10.2977 43.6215 10.309L43.6404 10.3354H43.6066L43.5839 10.3053C43.5765 10.2941 43.5727 10.2866 43.5689 10.2866C43.5652 10.2828 43.5652 10.2789 43.5616 10.2789C43.5575 10.2789 43.554 10.2789 43.5465 10.2789H43.5391V10.3354L43.5127 10.3354ZM43.5391 10.2566H43.5617C43.5765 10.2566 43.584 10.2566 43.5878 10.2528C43.5915 10.2528 43.5953 10.2489 43.5953 10.2489C43.5992 10.2453 43.5992 10.2414 43.5992 10.2376C43.5992 10.2341 43.5953 10.2263 43.5953 10.2263C43.5915 10.2228 43.5878 10.2189 43.584 10.2189C43.5803 10.2189 43.5728 10.2189 43.5617 10.2189H43.5392L43.5391 10.2566Z" fill="white"/>
<path fill-rule="evenodd" clip-rule="evenodd" d="M41.1632 10.362L41.4072 9.08545H41.7112L41.7489 9.2168C41.8051 9.16035 41.8989 9.08545 42.0867 9.08545L41.9928 9.42339C41.9103 9.42339 41.7825 9.40826 41.6776 9.65605C41.5988 9.8439 41.5611 10.1554 41.5198 10.362H41.1632Z" fill="white"/>
<path fill-rule="evenodd" clip-rule="evenodd" d="M36.5599 8.76611H36.8975L36.8225 9.104H37.0103L36.9539 9.36681H36.7851L36.6912 9.8738C36.6725 9.96773 36.6912 10.0617 36.879 10.0239L36.8415 10.3057C36.6388 10.4596 36.2331 10.3469 36.2969 9.96773L36.5599 8.76611Z" fill="white"/>
<path fill-rule="evenodd" clip-rule="evenodd" d="M38.0657 9.79874C38.1032 9.59221 38.1971 9.08545 37.5927 9.08545C37.0296 9.08545 36.9545 9.64866 36.9545 9.72356C36.9359 9.79874 36.9359 10.362 37.5365 10.362C37.6865 10.362 37.8969 10.3432 37.9908 10.3057L38.047 10.0428C37.9908 10.0617 37.7992 10.0805 37.6491 10.0805C37.5178 10.0805 37.2926 10.0805 37.33 9.79869L38.0657 9.79874Z" fill="white"/>
<path fill-rule="evenodd" clip-rule="evenodd" d="M33.9693 10.3618L34.2697 8.82227H33.684L33.271 9.76112L33.1958 8.82227H32.6515L32.3511 10.3618H32.6889L32.9144 9.25413L33.0083 10.3618H33.3274L33.8154 9.27287L33.6088 10.3618H33.9693Z" fill="white"/>
<path fill-rule="evenodd" clip-rule="evenodd" d="M34.363 9.12273L34.3068 9.40451C34.4007 9.40451 34.6259 9.3668 34.7385 9.3668C34.8512 9.3668 35.0012 9.34812 34.9451 9.53591C34.8512 9.53591 34.2316 9.44198 34.1377 9.98645C34.0854 10.3469 34.5133 10.4784 34.776 10.3057L34.8136 10.3806H35.1325L35.2641 9.68594C35.403 9.05883 34.7986 9.04754 34.363 9.12273Z" fill="white"/>
<path fill-rule="evenodd" clip-rule="evenodd" d="M39.9536 9.23524C39.8672 9.18257 39.8146 9.18257 39.7058 9.18257C39.6006 9.18257 39.3528 9.28779 39.3189 9.56928C39.2663 9.92234 39.4954 10.0802 39.8295 9.97495L39.9198 10.2754C39.3492 10.5607 38.8045 10.1176 38.9848 9.42664C39.1311 8.9047 39.822 8.58939 40.1676 9.0212L39.9536 9.23524Z" fill="white"/>
<path fill-rule="evenodd" clip-rule="evenodd" d="M42.9307 9.23535C42.0107 8.54431 41.654 10.3618 42.3674 10.3618C42.48 10.3618 42.5929 10.3056 42.6678 10.2678L42.7052 10.3618H43.0808L43.3812 8.74707H43.0244L42.9307 9.23535Z" fill="white"/>
<path fill-rule="evenodd" clip-rule="evenodd" d="M40.2239 9.12273L40.1676 9.40451C40.2612 9.40451 40.4868 9.3668 40.5992 9.3668C40.7121 9.3668 40.8433 9.34812 40.8059 9.53591C40.7121 9.53591 40.0925 9.44198 39.9989 9.98645C39.9608 10.2492 40.1864 10.3806 40.3554 10.3806C40.5242 10.3806 40.5806 10.3431 40.6368 10.3057L40.6743 10.3806H40.9937L41.125 9.68594C41.2678 9.05883 40.6631 9.04754 40.2239 9.12273Z" fill="white"/>
<path fill-rule="evenodd" clip-rule="evenodd" d="M37.3296 9.55489H37.7613C37.8101 9.21311 37.4009 9.28079 37.3296 9.55489Z" fill="#EB2230"/>
<path fill-rule="evenodd" clip-rule="evenodd" d="M34.8894 9.7984C34.8329 9.7984 34.7016 9.76092 34.5887 9.83611C34.4764 9.91101 34.4387 10.0424 34.5702 10.0801C34.6826 10.1175 34.8329 10.0424 34.8704 9.92975L34.8894 9.7984Z" fill="#EB2230"/>
<path fill-rule="evenodd" clip-rule="evenodd" d="M42.7622 9.4418C42.6496 9.29143 42.4056 9.40438 42.3305 9.68581C42.2743 9.87361 42.3869 10.005 42.4995 10.005C42.7361 10.0051 42.8787 9.61836 42.7622 9.4418Z" fill="#FBB230"/>
<path fill-rule="evenodd" clip-rule="evenodd" d="M40.769 9.79889C40.7129 9.79889 40.5815 9.76141 40.4686 9.8366C40.3563 9.9115 40.3186 10.0429 40.4501 10.0806C40.5625 10.118 40.7316 10.0429 40.7503 9.93024L40.769 9.79889Z" fill="#FBB230"/>
<path fill-rule="evenodd" clip-rule="evenodd" d="M38.0654 10.3806L38.0845 10.2492L38.3097 9.104H38.6098L38.6473 9.23541C38.7037 9.17896 38.7976 9.104 38.9854 9.104L38.8914 9.44194C38.8202 9.44194 38.6698 9.42681 38.5572 9.72727C38.4933 9.89999 38.4559 10.193 38.422 10.3806H38.0654Z" fill="white"/>
<path fill-rule="evenodd" clip-rule="evenodd" d="M36.2484 9.41184H36.2332H36.2184L36.2035 9.408L36.1884 9.40439H36.1733L36.1584 9.40049C36.0907 9.3931 36.0345 9.3892 35.967 9.3931C35.7941 9.40794 35.7192 9.51671 35.8655 9.59935C35.9819 9.66708 36.0722 9.65574 36.1507 9.73098C36.3198 9.88857 36.2333 10.1928 36.0455 10.3091L36.0119 10.3242L35.9745 10.3393L35.9332 10.3504L35.8958 10.3616C35.7154 10.3917 35.4715 10.3842 35.2949 10.3242L35.3437 10.0725C35.4863 10.1025 35.7193 10.1664 35.828 10.0915C35.952 10.0089 35.8393 9.9111 35.749 9.86984L35.7041 9.85488L35.6593 9.8362C35.3024 9.67448 35.3853 9.24267 35.7229 9.15264C35.8581 9.12261 35.9933 9.12261 36.1323 9.1339H36.1584C36.1923 9.13751 36.2224 9.14141 36.2523 9.1488H36.2672L36.2785 9.15264H36.2898L36.2972 9.15648H36.3085L36.2484 9.41184Z" fill="white"/>
</g>
</g>
<g clip-path="url(#clip2_8_527)">
<path d="M66.0002 20C71.5231 20 76.0002 15.5228 76.0002 10C76.0002 4.47715 71.5231 0 66.0002 0C60.4774 0 56.0002 4.47715 56.0002 10C56.0002 15.5228 60.4774 20 66.0002 20Z" fill="#EB0029"/>
<path fill-rule="evenodd" clip-rule="evenodd" d="M61.4792 5.35789C61.5709 5.60145 65.4384 15.3033 65.4476 15.3125C65.4581 15.323 70.9863 8.61722 71.0002 8.57708C71.0072 8.557 69.0788 6.72706 69.0279 6.7055C69.0066 6.69643 67.3097 6.38145 65.2571 6.00553C63.2045 5.62961 61.5105 5.31867 61.4926 5.31458C61.465 5.30823 61.463 5.31475 61.4792 5.35789ZM65.6187 6.60615C67.1064 6.87897 68.3237 7.10801 68.3237 7.11515C68.3237 7.12834 66.3062 8.80747 66.2432 8.84673C66.2138 8.86508 65.9769 8.6762 64.5614 7.50604C62.6872 5.95672 62.8716 6.11126 62.8954 6.11061C62.9055 6.11034 64.131 6.33333 65.6187 6.60615ZM64.2579 7.93618C65.4777 8.94626 65.9835 9.37615 65.9786 9.39878C65.9748 9.41639 65.8538 10.4137 65.7096 11.6151C65.5654 12.8164 65.4432 13.8122 65.4379 13.8278C65.4327 13.8435 64.7729 12.211 63.9716 10.2002C63.1703 8.18936 62.5098 6.53211 62.5038 6.51743C62.4978 6.50275 62.5013 6.49409 62.5116 6.49819C62.5219 6.50226 63.3077 7.14937 64.2579 7.93618ZM69.5065 7.86534C69.8215 8.16337 70.0759 8.41047 70.0719 8.4145C70.0592 8.42712 66.9846 8.97947 66.9569 8.97408C66.9335 8.9695 68.8931 7.32351 68.922 7.32351C68.9284 7.32351 69.1915 7.56734 69.5065 7.86534ZM69.9606 9.01704C69.8705 9.14803 65.9795 13.8579 65.9758 13.8403C65.9734 13.8283 66.0865 12.8703 66.2271 11.7113L66.4829 9.604L68.1892 9.29308C69.1277 9.12204 69.9161 8.98133 69.9413 8.98034C69.9831 8.9787 69.9847 8.98189 69.9606 9.01704Z" fill="white"/>
</g>
<g clip-path="url(#clip3_8_527)">
<path d="M94.0002 20C99.5231 20 104 15.5228 104 10C104 4.47717 99.5231 0 94.0002 0C88.4774 0 84.0002 4.47717 84.0002 10C84.0002 15.5228 88.4774 20 94.0002 20Z" fill="#8DC351"/>
<path d="M98.6836 8.30652C98.2103 8.06652 97.6403 8.01652 96.9803 8.15986C97.5503 7.41652 97.5703 6.60319 97.0403 5.72652C96.8503 5.40652 96.6203 5.15986 96.3469 4.98986C96.0736 4.81652 95.7736 4.71986 95.4369 4.69652C95.1036 4.67319 94.7603 4.69652 94.4169 4.76319C94.0703 4.83319 93.6903 4.94319 93.2736 5.09986L92.3603 3.18652L91.1903 3.74319L92.0769 5.60319C91.8736 5.69986 91.5669 5.85319 91.1569 6.05986L90.2636 4.18319L89.0936 4.73986L90.0069 6.65319C89.8436 6.73652 89.5969 6.85652 89.2736 7.01319L87.6603 7.77319L88.2536 9.01986L89.0969 8.61652C89.4803 8.43319 89.7903 8.49652 90.0203 8.80986L91.0603 10.9899C91.1103 10.9665 91.1536 10.9499 91.1869 10.9399L91.0669 10.9965L92.5236 14.0499C92.6069 14.3265 92.5203 14.5265 92.2669 14.6465L91.4236 15.0499L91.8503 16.5532L93.3703 15.8299C93.4669 15.7832 93.6069 15.7199 93.7903 15.6332C93.9736 15.5499 94.1103 15.4865 94.2036 15.4399L95.1269 17.3765L96.2969 16.8199L95.3836 14.9065C95.6003 14.8099 95.9103 14.6665 96.3136 14.4732L97.2236 16.3799L98.3936 15.8232L97.4703 13.8865C97.8769 13.6699 98.2269 13.4532 98.5203 13.2465C98.8136 13.0365 99.0803 12.8032 99.3169 12.5432C99.5536 12.2832 99.7269 12.0199 99.8403 11.7465C99.9536 11.4765 100.01 11.1732 100.007 10.8365C100.007 10.5032 99.9369 10.1465 99.8003 9.76986C99.5303 9.03319 99.1603 8.54319 98.6836 8.30652ZM91.8369 7.41319C91.8736 7.39652 91.9703 7.34652 92.1336 7.26652C92.2969 7.18652 92.4336 7.11652 92.5403 7.06319C92.6469 7.00986 92.7969 6.94652 92.9903 6.87319C93.1836 6.79986 93.3469 6.74652 93.4869 6.70986C93.6269 6.67319 93.7836 6.64986 93.9636 6.63652C94.1436 6.62319 94.2969 6.63652 94.4303 6.67652C94.5603 6.71652 94.6903 6.78652 94.8136 6.88652C94.9369 6.98652 95.0403 7.11986 95.1203 7.28652C95.1869 7.42986 95.2269 7.56986 95.2369 7.70652C95.2469 7.84319 95.2236 7.97319 95.1703 8.09652C95.1169 8.21986 95.0569 8.33319 94.9869 8.43652C94.9169 8.53986 94.8169 8.64652 94.6869 8.75319C94.5536 8.85986 94.4369 8.94986 94.3369 9.02319C94.2336 9.09652 94.1036 9.17652 93.9403 9.26319C93.7769 9.34986 93.6536 9.41652 93.5669 9.45986C93.4836 9.50319 93.3636 9.55986 93.2136 9.62986C93.0636 9.69986 92.9736 9.73986 92.9503 9.74986L91.8369 7.41319ZM97.4969 11.0632C97.5036 11.2032 97.4903 11.3332 97.4569 11.4565C97.4203 11.5799 97.3569 11.7032 97.2669 11.8265C97.1736 11.9532 97.0803 12.0632 96.9836 12.1565C96.8869 12.2532 96.7636 12.3565 96.6136 12.4632C96.4636 12.5732 96.3303 12.6632 96.2103 12.7332C96.0936 12.8065 95.9503 12.8865 95.7803 12.9765C95.6103 13.0665 95.4803 13.1332 95.3836 13.1799C95.2869 13.2265 95.1636 13.2832 95.0169 13.3499C94.8703 13.4165 94.7736 13.4599 94.7336 13.4799L93.5103 10.9132C93.5503 10.8932 93.6703 10.8332 93.8669 10.7332C94.0636 10.6332 94.2269 10.5532 94.3536 10.4932C94.4803 10.4332 94.6569 10.3565 94.8869 10.2665C95.1169 10.1765 95.3136 10.1099 95.4803 10.0665C95.6469 10.0232 95.8336 9.99319 96.0436 9.96986C96.2536 9.94652 96.4369 9.95652 96.5903 9.99319C96.7436 10.0299 96.8936 10.1032 97.0369 10.2099C97.1803 10.3165 97.2969 10.4599 97.3836 10.6399C97.4536 10.7832 97.4903 10.9232 97.4969 11.0632Z" fill="white"/>
</g>
<g clip-path="url(#clip4_8_527)">
<path d="M121.969 0.0419922L124.429 2.56111L118.235 8.75517L115.775 6.29533L121.969 0.0419922Z" fill="#F0B90B" stroke="#F0B90B" stroke-width="0.0592733"/>
<path d="M125.703 3.77637L128.163 6.29548L118.235 16.2238L115.775 13.7639L125.703 3.77637Z" fill="#F0B90B" stroke="#F0B90B" stroke-width="0.0592733"/>
<path d="M114.501 7.51074L116.961 10.0299L114.501 12.4897L112.041 10.0299L114.501 7.51074Z" fill="#F0B90B" stroke="#F0B90B" stroke-width="0.0592733"/>
<path d="M129.438 7.51074L131.898 10.0299L121.969 19.9581L119.51 17.4983L129.438 7.51074Z" fill="#F0B90B" stroke="#F0B90B" stroke-width="0.0592733"/>
</g>
<g clip-path="url(#clip5_8_527)">
<path d="M149.94 20C155.463 20 159.94 15.5228 159.94 10C159.94 4.47717 155.463 0 149.94 0C144.418 0 139.94 4.47717 139.94 10C139.94 15.5228 144.418 20 149.94 20Z" fill="url(#paint0_linear_8_527)"/>
<path d="M149.94 12.1202L146.103 10.2969L149.94 17.0002L153.777 10.2969L149.94 12.1202Z" fill="white"/>
<path d="M153.357 8.93667L149.94 3L146.517 8.94333L149.94 7.32L153.357 8.93667Z" fill="white"/>
<path d="M146.813 9.71331L149.94 11.1933L153.07 9.70998L149.94 8.22998L146.813 9.71331Z" fill="white"/>
</g>
<defs>
<linearGradient id="paint0_linear_8_527" x1="149.94" y1="0" x2="149.94" y2="20" gradientUnits="userSpaceOnUse">
<stop stop-color="#4A819F"/>
<stop offset="1" stop-color="#034681"/>
</linearGradient>
<clipPath id="clip0_8_527">
<rect width="20" height="20" fill="white"/>
</clipPath>
<clipPath id="clip1_8_527">
<rect width="20" height="12.4928" fill="white" transform="translate(28.0002 3.2251)"/>
</clipPath>
<clipPath id="clip2_8_527">
<rect width="20" height="20" fill="white" transform="translate(56)"/>
</clipPath>
<clipPath id="clip3_8_527">
<rect width="20" height="20" fill="white" transform="translate(84)"/>
</clipPath>
<clipPath id="clip4_8_527">
<rect width="19.9401" height="20" fill="white" transform="translate(112)"/>
</clipPath>
<clipPath id="clip5_8_527">
<rect width="20" height="20" fill="white" transform="translate(139.94)"/>
</clipPath>
</defs>
</svg>
